<svg width="512" height="512" viewBox="0 0 512 512" fill="none" xmlns="http://www.w3.org/2000/svg">
  <!-- Purple background -->
  <rect width="512" height="512" rx="96" fill="#7C3AED"/>

  <g transform="translate(76, 60) scale(0.7)">
    <!-- Outer roof chevron -->
    <polygon points="256,20 30,180 60,180 256,50 452,180 482,180" fill="white"/>
    <!-- Inner roof chevron -->
    <polygon points="256,70 60,210 90,210 256,105 422,210 452,210" fill="white"/>

    <!-- C shape - left block -->
    <path d="M70,210 L70,600 L230,600 L230,540 L150,540 L150,270 L230,270 L230,210 Z" fill="white"/>
    <!-- Small square notch bottom of C -->
    <rect x="190" y="510" width="40" height="40" fill="white"/>

    <!-- P shape - right block -->
    <path d="M230,210 L230,600 L310,600 L310,400 L420,400 L420,210 Z" fill="white"/>
    <!-- P window cutout -->
    <rect x="310" y="270" width="70" height="80" fill="#7C3AED"/>
  </g>
</svg>
