<svg width="1200" height="630" viewBox="0 0 1200 630" fill="none" xmlns="http://www.w3.org/2000/svg">
  <!-- Background -->
  <rect width="1200" height="630" fill="#0A0A0F"/>
  <!-- Subtle grid pattern -->
  <defs>
    <pattern id="grid" width="60" height="60" patternUnits="userSpaceOnUse">
      <path d="M 60 0 L 0 0 0 60" fill="none" stroke="rgba(124,58,237,0.08)" stroke-width="1"/>
    </pattern>
  </defs>
  <rect width="1200" height="630" fill="url(#grid)"/>
  <!-- Glow effect -->
  <circle cx="600" cy="315" r="200" fill="rgba(124,58,237,0.1)"/>
  <!-- CP Monogram -->
  <g transform="translate(440, 160)">
    <!-- C shape -->
    <path d="M140 30C70.442 30 14 86.442 14 156C14 225.558 70.442 282 140 282C163.31 282 185.16 275.12 203.44 263.2" stroke="white" stroke-width="28" stroke-linecap="round" fill="none"/>
    <!-- P shape -->
    <path d="M175 45V265M175 45H220C244.853 45 265 65.147 265 90V90C265 114.853 244.853 135 220 135H175" stroke="white" stroke-width="28" stroke-linecap="round" stroke-linejoin="round" fill="none"/>
  </g>
  <!-- Text -->
  <text x="600" y="500" text-anchor="middle" font-family="'Clash Display', 'Inter', sans-serif" font-size="32" font-weight="600" fill="white" letter-spacing="8">CLEVER PROJECT</text>
  <text x="600" y="540" text-anchor="middle" font-family="'JetBrains Mono', monospace" font-size="16" fill="rgba(255,255,255,0.5)" letter-spacing="4">SOFTWARE DEVELOPMENT STUDIO</text>
  <!-- Accent line -->
  <rect x="500" y="560" width="200" height="2" rx="1" fill="#7C3AED"/>
</svg>
