<svg width="1200" height="630" viewBox="0 0 1200 630" fill="none" xmlns="http://www.w3.org/2000/svg">
  <!-- Background -->
  <rect width="1200" height="630" fill="#0A0A0F"/>
  <defs>
    <pattern id="grid" width="60" height="60" patternUnits="userSpaceOnUse">
      <path d="M 60 0 L 0 0 0 60" fill="none" stroke="rgba(124,58,237,0.08)" stroke-width="1"/>
    </pattern>
  </defs>
  <rect width="1200" height="630" fill="url(#grid)"/>
  <circle cx="600" cy="260" r="200" fill="rgba(124,58,237,0.12)"/>

  <!-- CP Isometric Logo centered -->
  <g transform="translate(510, 80) scale(0.35)">
    <path d="M528.565 606.007L528 275.224C528 275.123 528.108 275.059 528.197 275.107L713.905 375.661C715.196 376.36 716 377.71 716 379.178V495.876C716 498.085 714.209 499.876 712 499.876H576.962C574.753 499.876 572.962 501.667 572.962 503.876V606C572.962 608.209 571.172 610 568.962 610H532.565C530.358 610 528.568 608.213 528.565 606.007Z" fill="white" stroke="white"/>
    <path d="M670.968 466H575C573.895 466 573 465.105 573 464V354.335C573 352.825 574.61 351.859 575.942 352.571L670.98 403.308C671.622 403.65 672.027 404.314 672.038 405.041L672.968 463.968C672.986 465.085 672.085 466 670.968 466Z" fill="#0A0A0F" stroke="white"/>
    <path d="M321 343.608V302.368C321 302.031 321.169 301.718 321.45 301.533L323.808 299.978L518.003 188.286C518.311 188.109 518.689 188.108 518.998 188.285L715.496 300.616C715.808 300.794 716 301.125 716 301.484V343.608C716 344.374 715.173 344.856 714.507 344.478L518.993 233.626C518.687 233.453 518.313 233.453 518.007 233.626L322.493 344.478C321.827 344.856 321 344.374 321 343.608Z" fill="white"/>
    <path d="M321 609V378.294C321 377.936 321.191 377.605 321.502 377.427L498.281 275.852C498.948 275.469 499.78 275.95 499.78 276.719V426.689C499.78 427.241 499.332 427.689 498.78 427.689H458.659C458.106 427.689 457.659 427.241 457.659 426.689V347.063C457.659 346.292 456.823 345.811 456.156 346.199L362.682 400.562C362.374 400.741 362.185 401.07 362.185 401.426V568.281C362.185 568.833 362.633 569.281 363.185 569.281H456.659C457.211 569.281 457.659 568.833 457.659 568.281V508.276C457.659 507.724 458.106 507.276 458.659 507.276H498.78C499.332 507.276 499.78 507.724 499.78 508.276V609C499.78 609.552 499.332 610 498.78 610H322C321.448 610 321 609.552 321 609Z" fill="white"/>
  </g>

  <!-- Text -->
  <text x="600" y="480" text-anchor="middle" font-family="'Clash Display', 'Inter', sans-serif" font-size="32" font-weight="600" fill="white" letter-spacing="8">CLEVER PROJECT</text>
  <text x="600" y="520" text-anchor="middle" font-family="'JetBrains Mono', monospace" font-size="16" fill="rgba(255,255,255,0.5)" letter-spacing="4">SOFTWARE DEVELOPMENT STUDIO</text>
  <rect x="500" y="545" width="200" height="2" rx="1" fill="#7C3AED"/>
</svg>
